<?xml version="1.0" encoding="UTF-8"?>
<svg id="_レイヤー_2" data-name="レイヤー 2" xmlns="http://www.w3.org/2000/svg" viewBox="0 0 885.31 412.44">
  <defs>
    <style>
      .cls-1 {
        fill: #fdfceb;
      }
    </style>
  </defs>
  <g id="contents">
    <g>
      <path class="cls-1" d="M640.34,194.65c-14.27-1.26-23.57-6.76-28.1-14.67-3.68-6.44-2.37-17.02-2.37-17.02,16.05,15.24,34.59,9.42,34.59,9.42,5.47-1.81,7.72-8.02,7.74-12.33.03-11.02-9.78-20.7-23.08-20.74-14-.04-24.08,12.86-24.14,33.93-.01,3.83.21,7.66.9,11.26,0,0,.55,8.4,5.09,16.06,7.19,15.11,20.46,26.17,37.49,26.22,11.67.03,21.25-4.48,29.91-11.88,3.74-2.86,5.62-4.06,7.95-4.05,3.5.01,5.59,3.61,5.58,6.24,0,1.92-.71,3.83-2.12,6.22-7.74,12.43-29.26,27.21-57.73,27.12-35.94-.11-62.7-25.11-62.58-63.9.12-39.75,30.32-65.52,64.62-65.41,33.37.1,52.8,22.65,52.72,46.12-.02,6.95-3.29,15.18-9.78,19.41-8.32,4.84-18.07,9.63-36.68,7.99"/>
      <path class="cls-1" d="M634.67,70.05c-7.57-.67-12.51-3.58-14.91-7.78-1.96-3.41-1.26-9.03-1.26-9.03,8.52,8.09,18.36,5,18.36,5,2.91-.96,4.1-4.25,4.1-6.54.02-5.84-5.19-10.98-12.25-11-7.43-.02-12.78,6.82-12.81,18.01,0,2.03.11,4.07.48,5.97,0,0,.29,4.46,2.7,8.52,3.81,8.02,10.86,13.89,19.9,13.92,6.19.02,11.28-2.38,15.87-6.3,1.99-1.52,2.98-2.15,4.22-2.15,1.86,0,2.97,1.92,2.96,3.31,0,1.02-.38,2.03-1.12,3.3-4.11,6.6-15.53,14.44-30.64,14.39-19.07-.06-33.27-13.32-33.21-33.91.07-21.1,16.09-34.77,34.29-34.71,17.71.06,28.02,12.02,27.98,24.47-.01,3.69-1.74,8.05-5.19,10.3-4.41,2.57-9.59,5.11-19.46,4.24"/>
      <path class="cls-1" d="M266.97,336.37c-10.96-.97-18.1-5.19-21.57-11.26-2.83-4.94-1.83-13.06-1.83-13.06,12.32,11.7,26.56,7.23,26.56,7.23,4.2-1.38,5.93-6.15,5.94-9.46.03-8.46-7.5-15.89-17.71-15.92-10.75-.03-18.49,9.87-18.54,26.05,0,2.94.16,5.88.69,8.64,0,0,.42,6.45,3.9,12.33,5.52,11.6,15.71,20.09,28.78,20.13,8.96.03,16.32-3.44,22.96-9.12,2.87-2.2,4.31-3.11,6.1-3.11,2.69,0,4.29,2.77,4.29,4.79,0,1.47-.55,2.94-1.63,4.77-5.94,9.54-22.46,20.89-44.32,20.82-27.59-.09-48.13-19.27-48.04-49.06.1-30.52,23.27-50.3,49.61-50.22,25.62.08,40.53,17.39,40.47,35.41-.02,5.33-2.52,11.65-7.51,14.9-6.39,3.71-13.87,7.39-28.16,6.13"/>
      <path class="cls-1" d="M371.48,239.33c0,3.59-2.59,6.22-7.25,6.21-6.07-.02-17.73-.78-30.1-.81-11.67-.04-21.24.65-27.54.63-6.3-.02-9.79-2.43-9.78-6.98.03-8.62,11.22-5.47,11.24-14.34.01-4.07-3.24-8.15-6.03-12.23l-15.8-21.6c-3.72-5.04-6.75-6.73-11.41-6.74-4.67.22-9.57.21-14.23-.05-3.74-.01-5.14,1.66-5.15,5.49l-.09,27.54c-.05,16.76,14.9,11.78,14.87,21.84-.01,3.59-2.59,6.94-8.42,6.92-6.07-.02-12.84-.76-25.9-.8-13.07-.04-19.37.66-25.21.64-6.07-.02-8.39-3.38-8.38-6.97.03-10.06,14.25-4.98,14.3-21.75l.36-114.47c.05-16.77-14.2-11.78-14.17-22.08.01-3.35,2.35-6.7,9.59-6.68,3.97.01,12.83.76,21.94.79,9.57.03,26.84-1.59,40.61-1.55,54.61.17,81.38,23.49,81.27,57.5-.08,24.19-13.67,41.87-36.33,48.98l24.4,32.65c14.87,19.93,27.25,17.33,27.22,27.87M313.71,130.18c.08-26.58-17.38-38.85-40.95-38.92-11.2-.03-17.04,2.34-17.07,11.44l-.18,55.8c-.02,6.7,4.64,8.39,17.48,8.44,25.2.08,40.64-8.97,40.72-36.75"/>
      <path class="cls-1" d="M378.95,238.88c.03-9.58,13.78-4.27,13.84-21.99l.16-50.53c.05-15.33-15.38-8.67-15.34-19.21.02-5.27,5.86-8.6,22.46-15.98,15.42-7.13,18.23-7.84,20.79-7.84,5.6.02,7.22,4.82,7.2,11.52l-.26,82.15c-.06,17.72,13.73,12.5,13.7,22.07-.01,3.11-2.36,6.7-7.72,6.68-5.6-.02-11.9-.75-23.57-.79s-17.74.66-23.34.64c-5.6-.02-7.92-3.38-7.91-6.73"/>
      <path class="cls-1" d="M444.7,187.36c.13-40.71,30.78-66.72,64.86-66.61,27.31.09,48.72,17.64,48.68,29.85-.02,5.75-3.54,13.64-15.24,23.18-3.51,3.1-5.61,3.81-7.71,3.81-4.2-.01-6.76-3.37-7.44-7.93-2.99-14.86-7.13-33.07-23-33.12-14.24-.04-23.62,14.3-23.69,36.57-.1,32.33,19.91,52.27,41.15,52.34,13.3.04,23.13-6.39,30.15-13.56,2.34-2.15,3.98-3.1,5.84-3.09,3.03,0,5.13,2.89,5.11,6,0,2.16-.71,4.31-1.89,6.94-6.34,12.91-25.53,28.42-54.7,28.33-34.77-.11-62.24-23.43-62.11-62.7"/>
      <path class="cls-1" d="M0,312.38c.14-43.76,29.79-72.16,61.14-72.06,12.36.04,22.56,4.48,27.22,4.5,4.12.01,5.21-5.13,9.33-5.12,3.58.01,5.72,2.77,8.39,9.96l6.39,17.67c3.02,8.28,4.62,11.96,4.61,15.09-.01,4.23-2.89,6.24-5.75,6.23-2.87,0-4.65-1.67-6.97-4.8-13.38-18.61-24.1-28.57-36.82-28.61-20.25-.06-35.54,21.03-35.64,50.63-.1,32.91,17.4,52.27,40.33,52.34,14.15.04,25.47-7.64,32.84-17.91,1.8-2.57,3.78-4.77,7-4.76,3.4.01,5.73,2.59,5.72,6.09,0,2.39-.91,5.14-2.71,8.45-6.31,12.11-24.64,28.79-53.48,28.7C29,378.66-.13,353.75,0,312.38"/>
      <path class="cls-1" d="M209.51,293.74c-.02,5.15-2.37,11.94-6.16,21.12-1.44,3.67-3.42,5.87-6.47,5.87-2.87-.01-4.65-2.41-6.08-5.35-3.2-6.63-6.24-10.5-11.07-10.52-6.99-.02-17.95,9.69-18.02,31.94l-.05,16.92c-.04,13.6,12.87,8.86,12.85,16.95,0,2.39-1.81,5.14-6.11,5.13-4.66-.01-10.21-.58-20.24-.62-8.96-.03-13.62.51-17.92.49-4.3-.01-6.08-2.59-6.08-5.17.02-7.36,10.58-3.27,10.62-16.88l.12-38.79c.04-11.76-11.81-6.66-11.78-14.75.01-4.04,4.5-6.6,17.24-12.26,11.84-5.48,13.99-6.02,15.96-6.02,4.3.01,5.54,3.7,5.53,8.84l-.05,15.08c5.42-13.96,18.17-24.58,31.07-24.54,10.03.03,16.64,5.94,16.62,12.55"/>
      <path class="cls-1" d="M416.93,363.71c-.02,5.15-8.29,13.76-22.44,13.72-8.06-.02-15.4-4.28-19.31-12.56-6.83,6.78-18.32,13.18-33.19,13.13-19.71-.06-31.85-11.87-31.8-28.42.05-16.73,13.53-29.92,37.72-29.85,8.24.03,14.87,1.34,20.24,3.01l-.17-2.02c-2.1-15.64-9.07-21.73-19.28-21.76-7.88-.02-14.34,3.08-20.09,6.92-2.51,1.46-4.85,2.74-6.82,2.74-2.15,0-4.65-1.85-4.64-5.16.01-3.31,3.07-6.79,5.76-9.17,7.19-7.15,19.57-12.81,34.62-12.76,22.4.07,33.82,11.87,36.45,32.11l4.03,30.17c1.58,12.14,5.69,14.17,15.54,16.23,1.97.37,3.4,1.67,3.39,3.69M372.17,353.64l-2.45-19.31c-3.76-1.3-8.41-2.05-13.25-2.07-11.29-.03-18.47,4.91-18.5,14.28-.03,9.38,6.58,15.46,15.54,15.49,7.53.02,14.88-4.18,18.66-8.4"/>
      <path class="cls-1" d="M586.98,372.15c0,2.94-2.7,4.77-6.64,4.76-4.84-.01-8.6-.58-17.92-.61-9.67-.03-13.26.51-18.1.5-4.48-.01-6.8-2.23-6.79-5.17.02-6.8,10.59-4.19,10.62-14.12,0-1.84-.34-5.33-.69-8.28l-3.33-24.28c-.87-7.36-2.8-21.52-14.44-21.56-8.06-.03-15.61,6.2-15.66,23.85l-.09,27.58c-.04,13.6,11.44,9.6,11.41,16.95,0,2.39-1.99,5.14-6.11,5.13-4.48-.01-9.31-.58-18.81-.61-8.78-.03-13.44.51-17.74.5-4.12-.01-6.08-2.59-6.08-5.17.02-7.36,10.4-3.28,10.45-16.88l.09-29.97c.04-11.95-3.16-21.52-14.26-21.56-8.06-.03-17.4,6.01-17.46,24.4l-.09,27.03c-.04,13.61,10.54,9.59,10.52,16.95,0,2.39-1.81,5.14-5.93,5.13-4.3-.01-9.13-.58-18.09-.61-8.96-.03-13.62.51-17.92.49-4.3-.01-6.08-2.59-6.08-5.17.02-7.36,10.58-3.28,10.63-16.88l.12-38.79c.04-11.77-11.81-6.66-11.78-14.75.01-4.04,4.5-6.6,17.06-12.26,12.02-5.48,14.17-6.02,16.14-6.02,4.3.01,5.54,3.7,5.53,8.84l-.03,8.83c5.59-9.73,16.18-18.15,30.34-18.11,12.9.04,21.3,7.6,25.38,18.65,5.05-9.91,14.57-18.52,29.08-18.48,18.82.06,27.19,15.16,29.99,36.13l4.37,34.21c2.28,16.37,12.33,11.44,12.3,19.34"/>
      <path class="cls-1" d="M429.27,90.48c-.03,10.74-10.26,19.41-22.84,19.37-12.58-.04-22.75-8.77-22.72-19.51.03-10.73,10.26-19.4,22.84-19.37,12.58.04,22.75,8.77,22.72,19.51"/>
      <path class="cls-1" d="M451.49,92.98c.02-5.95,9.63-2.75,9.65-11.61l.19-59.6c.01-4.05-1.46-5.83-5.28-5.84h-2.59c-7.4-.03-12.84,5.39-21.01,14.86-1.86,2.15-3.09,3.41-5.07,3.4-1.85,0-3.57-1.53-3.56-4.31,0-2.41,1-4.55,2.86-9.1l4.47-11.25c1.87-4.68,3.47-6.44,6.19-6.44,3.33.01,3.94,3.05,8.87,3.07l50.68.16c4.93.01,5.56-3.02,8.89-3.01,2.71,0,4.31,1.79,6.14,6.48l4.4,11.27c1.84,4.56,2.82,6.72,2.81,9.12,0,2.78-1.74,4.3-3.59,4.29-1.97,0-3.2-1.28-5.04-3.43-8.11-9.52-13.52-14.97-20.92-15h-2.59c-3.82-.02-5.31,1.75-5.32,5.8l-.19,59.6c-.03,8.86,9.6,5.72,9.58,11.67,0,1.9-1.37,3.67-4.45,3.65-3.7-.01-7.77-.4-15.29-.43s-11.84.34-15.42.33c-3.08,0-4.43-1.79-4.43-3.68"/>
      <path class="cls-1" d="M597.6,93.69c0,2.02-1.74,3.29-4.45,3.28-3.2-.01-5.79-.4-12.21-.42-6.66-.02-9.13.35-12.46.34-3.21-.01-4.56-1.53-4.55-3.56.01-4.68,7.16-2.89,7.18-8.96,0-1.9-.24-3.04-.35-4.18l-2.53-18.74c-1.08-8.61-4.02-15.07-10.93-15.09-5.43-.02-11.6,4.27-11.64,16.92l-.06,18.48c-.03,9.36,7.38,6.6,7.36,11.67,0,1.64-1.25,3.54-4.21,3.53-2.84,0-6.16-.4-12.45-.42-6.17-.02-9.25.35-12.21.34s-4.19-1.79-4.18-3.56c.02-5.06,7.16-2.26,7.19-11.62l.19-59.1c.02-7.97-8.13-4.45-8.11-10.15,0-2.78,3.22-4.42,11.86-8.44C539.2.37,540.8,0,542.28,0c2.84,0,3.57,2.42,3.56,5.58l-.12,38.85c3.84-6.69,10.89-12.49,20.63-12.46,12.7.04,18.46,11.19,20.14,24.87l2.89,23.54c1.45,11.27,8.24,7.87,8.22,13.31"/>
      <path class="cls-1" d="M638.78,336.43c-10.94-.97-18.06-5.18-21.53-11.24-2.82-4.93-1.82-13.04-1.82-13.04,12.3,11.68,26.52,7.22,26.52,7.22,4.19-1.38,5.92-6.14,5.93-9.45.03-8.44-7.49-15.86-17.69-15.89-10.73-.03-18.46,9.85-18.51,26,0,2.94.16,5.87.69,8.63,0,0,.42,6.44,3.9,12.31,5.51,11.58,15.68,20.05,28.73,20.1,8.94.03,16.29-3.43,22.92-9.1,2.87-2.19,4.3-3.11,6.09-3.1,2.68,0,4.28,2.77,4.28,4.79,0,1.47-.55,2.93-1.62,4.77-5.93,9.53-22.43,20.86-44.25,20.79-27.55-.09-48.05-19.24-47.96-48.97.1-30.47,23.23-50.22,49.53-50.13,25.58.08,40.46,17.36,40.4,35.35-.01,5.32-2.52,11.63-7.49,14.87-6.37,3.7-13.85,7.38-28.11,6.12"/>
      <path class="cls-1" d="M769.46,293.53c0,5.22-2.36,12.12-6.18,21.43-1.45,3.73-3.45,5.96-6.54,5.96-2.91,0-4.72-2.42-6.18-5.4-3.27-6.71-6.36-10.62-11.26-10.62-7.08,0-18.16,9.88-18.16,32.43v17.15c0,13.79,13.08,8.95,13.08,17.15,0,2.42-1.82,5.22-6.17,5.22-4.72,0-10.35-.56-20.52-.56-9.08,0-13.8.56-18.16.56s-6.17-2.61-6.17-5.22c0-7.46,10.72-3.36,10.72-17.15v-39.33c0-11.93-11.99-6.71-11.99-14.91,0-4.1,4.54-6.71,17.44-12.49,11.99-5.59,14.17-6.15,16.16-6.15,4.36,0,5.63,3.73,5.63,8.95v15.28c5.45-14.16,18.34-24.98,31.42-24.98,10.17,0,16.89,5.97,16.89,12.68"/>
      <path class="cls-1" d="M885.31,287.38c0,6.71-8.9,4.66-15.26,19.76l-30.7,74.18c-8.17,19.76-19.98,31.13-35.6,31.13-6.9,0-12.72-1.86-14.9-4.66-3.27-4.29-7.27-17.89-7.27-24.98,0-3.92,2.18-6.9,5.09-6.9,2,0,3.45.93,5.27,3.36,6.9,9.88,11.26,13.79,17.26,13.79s9.99-6.15,13.98-15.28l-33.42-70.46c-7.08-15.1-15.26-13.23-15.26-19.94,0-2.98,2.54-4.84,5.81-4.84,4.72,0,10.72.56,20.52.56,9.27,0,14.71-.56,19.44-.56s7.08,1.86,7.08,5.03c0,6.9-9.08,5.03-9.08,13.61,0,2.8,1.09,6.34,3.09,11.37l16.35,37.09,14.53-37.09c2.18-5.4,3.27-8.76,3.27-11.93,0-7.27-9.45-6.15-9.45-13.05,0-3.17,2.36-5.03,6.9-5.03,3.63,0,8.17.56,13.08.56s9.63-.56,13.44-.56c3.27,0,5.81,1.86,5.81,4.84"/>
    </g>
  </g>
</svg>